HIERARCHY
ROOT Root
{
  OFFSET 0.0 0.0 0.0
  CHANNELS 6 Xposition Yposition Zposition Zrotation Yrotation Xrotation
  JOINT Hips
  {
    OFFSET 0.0 100.0 0.0
    CHANNELS 6 Xposition Yposition Zposition Zrotation Yrotation Xrotation
    JOINT Spine1
    {
      OFFSET 5.003913 -0.037094 -0.013727
      CHANNELS 3 Zrotation Yrotation Xrotation
      JOINT Spine2
      {
        OFFSET 7.125363 -1e-06 0.0
        CHANNELS 3 Zrotation Yrotation Xrotation
        JOINT Chest
        {
          OFFSET 7.594027 1e-06 0.0
          CHANNELS 3 Zrotation Yrotation Xrotation
          JOINT Neck1
          {
            OFFSET 26.313086 -0.460272 -0.181672
            CHANNELS 3 Zrotation Yrotation Xrotation
            JOINT Neck2
            {
              OFFSET 8.045911 0.0 0.0
              CHANNELS 3 Zrotation Yrotation Xrotation
              JOINT Head
              {
                OFFSET 6.432774 0.0 0.0
                CHANNELS 3 Zrotation Yrotation Xrotation
                JOINT HeadEnd
                {
                  OFFSET 16.169773 0.06451 0.00362
                  CHANNELS 3 Zrotation Yrotation Xrotation
                }
                JOINT Jaw
                {
                  OFFSET 0.108741 3.12938 0.002639
                  CHANNELS 3 Zrotation Yrotation Xrotation
                }
                JOINT LeftEye
                {
                  OFFSET 4.45173 8.166359 3.206392
                  CHANNELS 3 Zrotation Yrotation Xrotation
                }
                JOINT RightEye
                {
                  OFFSET 4.436895 8.135758 -3.222429
                  CHANNELS 3 Zrotation Yrotation Xrotation
                }
              }
            }
          }
          JOINT LeftShoulder
          {
            OFFSET 23.218927 5.195579 1.621656
            CHANNELS 3 Zrotation Yrotation Xrotation
            JOINT LeftArm
            {
              OFFSET 15.902118 2e-06 -2e-06
              CHANNELS 3 Zrotation Yrotation Xrotation
              JOINT LeftForeArm
              {
                OFFSET 28.739307 0.0 -1e-06
                CHANNELS 3 Zrotation Yrotation Xrotation
                JOINT LeftHand
                {
                  OFFSET 27.093981 -4e-06 0.0
                  CHANNELS 3 Zrotation Yrotation Xrotation
                  JOINT LeftHandThumb1
                  {
                    OFFSET 2.276781 3.380274 0.83384
                    CHANNELS 3 Zrotation Yrotation Xrotation
                    JOINT LeftHandThumb2
                    {
                      OFFSET 4.705309 -1e-06 -1e-06
                      CHANNELS 3 Zrotation Yrotation Xrotation
                      JOINT LeftHandThumb3
                      {
                        OFFSET 2.798515 0.0 3e-06
                        CHANNELS 3 Zrotation Yrotation Xrotation
                        JOINT LeftHandThumbEnd
                        {
                          OFFSET 3.180793 4e-06 -4e-06
                          CHANNELS 3 Zrotation Yrotation Xrotation
                        }
                      }
                    }
                  }
                  JOINT LeftHandIndex1
                  {
                    OFFSET 3.247786 2.352677 0.137192
                    CHANNELS 3 Zrotation Yrotation Xrotation
                    JOINT LeftHandIndex2
                    {
                      OFFSET 6.367095 1e-06 0.0
                      CHANNELS 3 Zrotation Yrotation Xrotation
                      JOINT LeftHandIndex3
                      {
                        OFFSET 3.662364 0.0 0.0
                        CHANNELS 3 Zrotation Yrotation Xrotation
                        JOINT LeftHandIndex4
                        {
                          OFFSET 2.329242 4e-06 -4e-06
                          CHANNELS 3 Zrotation Yrotation Xrotation
                          JOINT LeftHandIndexEnd
                          {
                            OFFSET 2.767823 1e-06 0.0
                            CHANNELS 3 Zrotation Yrotation Xrotation
                          }
                        }
                      }
                    }
                  }
                  JOINT LeftHandMiddle1
                  {
                    OFFSET 3.163612 0.945023 -0.406112
                    CHANNELS 3 Zrotation Yrotation Xrotation
                    JOINT LeftHandMiddle2
                    {
                      OFFSET 6.276789 3e-06 0.0
                      CHANNELS 3 Zrotation Yrotation Xrotation
                      JOINT LeftHandMiddle3
                      {
                        OFFSET 4.35652 -1e-06 4e-06
                        CHANNELS 3 Zrotation Yrotation Xrotation
                        JOINT LeftHandMiddle4
                        {
                          OFFSET 2.996877 0.0 8e-06
                          CHANNELS 3 Zrotation Yrotation Xrotation
                          JOINT LeftHandMiddleEnd
                          {
                            OFFSET 2.323256 3e-06 -4e-06
                            CHANNELS 3 Zrotation Yrotation Xrotation
                          }
                        }
                      }
                    }
                  }
                  JOINT LeftHandRing1
                  {
                    OFFSET 2.882606 -0.309162 0.107445
                    CHANNELS 3 Zrotation Yrotation Xrotation
                    JOINT LeftHandRing2
                    {
                      OFFSET 6.033198 0.0 4e-06
                      CHANNELS 3 Zrotation Yrotation Xrotation
                      JOINT LeftHandRing3
                      {
                        OFFSET 4.350578 3e-06 0.0
                        CHANNELS 3 Zrotation Yrotation Xrotation
                        JOINT LeftHandRing4
                        {
                          OFFSET 2.651321 2e-06 -7e-06
                          CHANNELS 3 Zrotation Yrotation Xrotation
                          JOINT LeftHandRingEnd
                          {
                            OFFSET 1.937663 1e-06 -4e-06
                            CHANNELS 3 Zrotation Yrotation Xrotation
                          }
                        }
                      }
                    }
                  }
                  JOINT LeftHandPinky1
                  {
                    OFFSET 2.865315 -1.525436 0.575687
                    CHANNELS 3 Zrotation Yrotation Xrotation
                    JOINT LeftHandPinky2
                    {
                      OFFSET 5.54936 1e-06 -8e-06
                      CHANNELS 3 Zrotation Yrotation Xrotation
                      JOINT LeftHandPinky3
                      {
                        OFFSET 3.070974 0.0 -4e-06
                        CHANNELS 3 Zrotation Yrotation Xrotation
                        JOINT LeftHandPinky4
                        {
                          OFFSET 1.549672 1e-06 0.0
                          CHANNELS 3 Zrotation Yrotation Xrotation
                          JOINT LeftHandPinkyEnd
                          {
                            OFFSET 1.952123 0.0 0.0
                            CHANNELS 3 Zrotation Yrotation Xrotation
                          }
                        }
                      }
                    }
                  }
                }
              }
            }
          }
          JOINT RightShoulder
          {
            OFFSET 23.161716 5.296122 -1.380114
            CHANNELS 3 Zrotation Yrotation Xrotation
            JOINT RightArm
            {
              OFFSET -16.027195 -2e-06 1.1e-05
              CHANNELS 3 Zrotation Yrotation Xrotation
              JOINT RightForeArm
              {
                OFFSET -28.736639 4e-06 2e-06
                CHANNELS 3 Zrotation Yrotation Xrotation
                JOINT RightHand
                {
                  OFFSET -27.133619 6e-06 0.0
                  CHANNELS 3 Zrotation Yrotation Xrotation
                  JOINT RightHandThumb1
                  {
                    OFFSET -2.274328 -3.351035 -0.83067
                    CHANNELS 3 Zrotation Yrotation Xrotation
                    JOINT RightHandThumb2
                    {
                      OFFSET -4.703594 -3e-06 2e-06
                      CHANNELS 3 Zrotation Yrotation Xrotation
                      JOINT RightHandThumb3
                      {
                        OFFSET -2.794935 -4e-06 -3e-06
                        CHANNELS 3 Zrotation Yrotation Xrotation
                        JOINT RightHandThumbEnd
                        {
                          OFFSET -3.183852 4e-06 1e-06
                          CHANNELS 3 Zrotation Yrotation Xrotation
                        }
                      }
                    }
                  }
                  JOINT RightHandIndex1
                  {
                    OFFSET -3.253496 -2.33755 -0.127667
                    CHANNELS 3 Zrotation Yrotation Xrotation
                    JOINT RightHandIndex2
                    {
                      OFFSET -6.344434 0.0 0.0
                      CHANNELS 3 Zrotation Yrotation Xrotation
                      JOINT RightHandIndex3
                      {
                        OFFSET -3.654871 0.0 -8e-06
                        CHANNELS 3 Zrotation Yrotation Xrotation
                        JOINT RightHandIndex4
                        {
                          OFFSET -2.327586 -1e-06 0.0
                          CHANNELS 3 Zrotation Yrotation Xrotation
                          JOINT RightHandIndexEnd
                          {
                            OFFSET -2.770001 3e-06 8e-06
                            CHANNELS 3 Zrotation Yrotation Xrotation
                          }
                        }
                      }
                    }
                  }
                  JOINT RightHandMiddle1
                  {
                    OFFSET -3.168223 -0.944764 0.411762
                    CHANNELS 3 Zrotation Yrotation Xrotation
                    JOINT RightHandMiddle2
                    {
                      OFFSET -6.266691 -1e-06 -4e-06
                      CHANNELS 3 Zrotation Yrotation Xrotation
                      JOINT RightHandMiddle3
                      {
                        OFFSET -4.348901 0.0 0.0
                        CHANNELS 3 Zrotation Yrotation Xrotation
                        JOINT RightHandMiddle4
                        {
                          OFFSET -3.00024 2e-06 -4e-06
                          CHANNELS 3 Zrotation Yrotation Xrotation
                          JOINT RightHandMiddleEnd
                          {
                            OFFSET -2.321477 -4e-06 -4e-06
                            CHANNELS 3 Zrotation Yrotation Xrotation
                          }
                        }
                      }
                    }
                  }
                  JOINT RightHandRing1
                  {
                    OFFSET -2.885654 0.293261 -0.119232
                    CHANNELS 3 Zrotation Yrotation Xrotation
                    JOINT RightHandRing2
                    {
                      OFFSET -6.032835 -1e-06 -4e-06
                      CHANNELS 3 Zrotation Yrotation Xrotation
                      JOINT RightHandRing3
                      {
                        OFFSET -4.33881 0.0 -4e-06
                        CHANNELS 3 Zrotation Yrotation Xrotation
                        JOINT RightHandRing4
                        {
                          OFFSET -2.654903 -4e-06 -4e-06
                          CHANNELS 3 Zrotation Yrotation Xrotation
                          JOINT RightHandRingEnd
                          {
                            OFFSET -1.935122 0.0 4e-06
                            CHANNELS 3 Zrotation Yrotation Xrotation
                          }
                        }
                      }
                    }
                  }
                  JOINT RightHandPinky1
                  {
                    OFFSET -2.866241 1.503904 -0.60527
                    CHANNELS 3 Zrotation Yrotation Xrotation
                    JOINT RightHandPinky2
                    {
                      OFFSET -5.553177 -2e-06 0.0
                      CHANNELS 3 Zrotation Yrotation Xrotation
                      JOINT RightHandPinky3
                      {
                        OFFSET -3.062664 -1e-06 -4e-06
                        CHANNELS 3 Zrotation Yrotation Xrotation
                        JOINT RightHandPinky4
                        {
                          OFFSET -1.546529 2e-06 4e-06
                          CHANNELS 3 Zrotation Yrotation Xrotation
                          JOINT RightHandPinkyEnd
                          {
                            OFFSET -1.952341 0.0 -4e-06
                            CHANNELS 3 Zrotation Yrotation Xrotation
                          }
                        }
                      }
                    }
                  }
                }
              }
            }
          }
        }
      }
    }
    JOINT LeftLeg
    {
      OFFSET -8.443107 2.567604 10.043214
      CHANNELS 3 Zrotation Yrotation Xrotation
      JOINT LeftShin
      {
        OFFSET 43.229198 1e-06 -1e-06
        CHANNELS 3 Zrotation Yrotation Xrotation
        JOINT LeftFoot
        {
          OFFSET 42.298611 1e-06 1e-06
          CHANNELS 3 Zrotation Yrotation Xrotation
          JOINT LeftToeBase
          {
            OFFSET 14.165858 1e-06 0.0
            CHANNELS 3 Zrotation Yrotation Xrotation
            JOINT LeftToeEnd
            {
              OFFSET 6.7141 -0.234461 0.0
              CHANNELS 3 Zrotation Yrotation Xrotation
            }
          }
        }
      }
    }
    JOINT RightLeg
    {
      OFFSET -8.303923 2.592729 -10.047278
      CHANNELS 3 Zrotation Yrotation Xrotation
      JOINT RightShin
      {
        OFFSET -43.369682 0.0 1e-06
        CHANNELS 3 Zrotation Yrotation Xrotation
        JOINT RightFoot
        {
          OFFSET -42.260784 4e-06 2e-06
          CHANNELS 3 Zrotation Yrotation Xrotation
          JOINT RightToeBase
          {
            OFFSET -14.222245 -2e-06 -1e-06
            CHANNELS 3 Zrotation Yrotation Xrotation
            JOINT RightToeEnd
            {
              OFFSET -6.660062 0.232574 -2e-06
              CHANNELS 3 Zrotation Yrotation Xrotation
            }
          }
        }
      }
    }
  }
}
MOTION
Frames: 4
Frame Time: 0.03333333333333333
0.0 0.0 0.0 0.0 -0.0 0.0 20.287149 99.834496 266.43399 88.540977 1.286253 96.131004 1.782267 1.313967 0.709629 -10.036669 -0.421149 -0.054854 14.49619 0.601191 -2.132744 15.041685 0.856525 2.365655 -2.390264 -0.748578 -0.883115 -35.742157 -2.073927 -0.541733 5e-06 -0.0 0.0 0.051047 -0.011935 -0.083976 0.048988 -0.023133 -0.089787 0.050259 -0.004667 -0.076839 -119.382652 -72.644104 136.213104 37.976311 -56.027935 7.733161 30.76693 0.008006 0.123164 -4.599776 1.316795 4.231196 17.636772 -26.323015 52.411674 -19.466974 -14.395801 29.410799 8e-06 -8.774987 5e-06 16.341421 -18.014805 5.850599 -0.609783 -1.795677 -3.889362 -4.807169 -11.046988 -2.937882 -1.5e-05 -20.976454 -1e-05 -5.020106 -25.034243 -4.031986 5e-06 1e-06 2e-06 -10.634651 -5.687047 -3.565605 10.57342 -17.923223 -3.113964 -9e-06 -13.821487 -1.2e-05 -0.501791 -31.182375 -4.027161 -11.577667 -59.496323 7.136286 -13.982867 -7.150292 -2.875047 13.772921 -8.401603 -3.218302 0.347715 -34.212307 0.771642 -0.963058 -17.733828 2.621063 -0.0 2e-06 -1e-06 -17.34664 -20.095478 -4.201785 21.757877 -1.638372 3.866462 -7e-06 -6.338946 -5e-06 -1.697637 -22.592337 -6.194182 -0.0 -3e-06 -2e-06 51.919361 -77.186157 144.701126 39.049595 -56.244198 6.667904 29.429903 -0.494146 0.013276 -1.12428 -0.688793 3.997262 22.182302 -20.37603 49.933681 -16.701973 -16.743685 28.476809 2.2e-05 -12.690768 -6e-06 16.320841 -17.630463 2.485637 -0.105922 -1.51387 -4.275911 -5.039105 -5.612943 -2.953583 -1.6e-05 -11.020688 -0.0 -6.111425 -15.895657 -3.84055 1e-06 1e-06 0.0 -10.283463 -5.680353 -4.341866 11.028391 -11.302511 -2.372655 -1.384314 -14.238791 -6.320215 -0.62548 -26.924713 -3.827706 -4.235478 -49.816097 -4.048788 -13.708652 -7.363561 -3.720957 18.141325 -14.052869 -3.242704 -1.9e-05 -18.787554 -1.7e-05 -0.429727 -8.456201 2.555539 0.0 -0.0 -0.0 -15.923712 -20.094692 -5.473606 30.419529 -7.190856 1.735964 -7e-06 -8.163042 -9e-06 -1.86195 -22.861923 -6.168099 1e-06 -4e-06 -4e-06 164.080536 -8.274834 -9.802816 69.876297 0.059952 0.097638 -65.063751 -3.291246 1.774461 -11.251966 1.602522 2.158626 -1.000005 1e-06 0.0 -7.397961 3.884595 -5.213593 14.993819 0.050732 -0.11198 -75.682632 1.222662 1.494156 -6.926218 0.764851 1.644741 -1.000007 -0.0 -0.0 
0.0 0.0 0.0 0.0 -0.0 0.0 20.341312 99.96035 270.874268 88.525993 1.562478 95.217949 2.008614 1.696349 0.846844 -9.931904 -0.29793 0.470756 14.356525 0.132356 -1.663508 15.500679 0.468403 2.488348 -2.429609 -0.731126 -1.05968 -35.303608 -1.993799 -0.792803 6e-06 -0.0 -1e-06 0.060639 -0.014482 -0.092599 0.05575 -0.027813 -0.096348 0.047642 -0.006485 -0.086549 -118.31617 -71.837921 135.181412 34.798153 -56.469517 10.150242 32.993378 0.012598 0.130914 -4.1244 1.428146 3.52836 17.636805 -26.323032 52.41177 -19.466984 -14.39579 29.410835 6e-06 -8.774988 -2e-06 16.226137 -18.096785 5.875157 -0.609782 -1.795677 -3.889367 -4.80717 -11.046988 -2.937893 -4e-06 -20.976444 -2e-05 -5.020084 -25.034225 -4.032015 7e-06 3e-06 1e-06 -10.634657 -5.687047 -3.565619 10.573431 -17.923223 -3.113967 -0.0 -13.821484 -1.3e-05 -0.50176 -31.182358 -4.027174 -11.600669 -59.509758 7.110341 -13.982878 -7.150295 -2.875061 13.772931 -8.40161 -3.218299 0.347737 -34.212322 0.771634 -0.963049 -17.733828 2.621065 2e-06 -1e-06 -2e-06 -17.346647 -20.095484 -4.201811 21.757885 -1.638382 3.866486 -3e-06 -6.338945 -5e-06 -1.697619 -22.592337 -6.194205 -0.0 0.0 -1e-06 52.581852 -78.13575 143.735947 41.321644 -55.213966 5.140404 31.178602 -0.408589 0.048913 -0.455738 -0.054535 2.678026 22.182287 -20.376043 49.933746 -16.702068 -16.743732 28.476902 1e-05 -12.690807 1e-05 16.266462 -17.673422 2.529812 -0.105919 -1.513874 -4.275918 -5.03911 -5.612962 -2.953592 -8e-06 -11.020729 -1.3e-05 -6.111429 -15.895723 -3.840563 1e-06 0.0 0.0 -10.283475 -5.680365 -4.341863 11.028426 -11.30255 -2.372683 -1.3843 -14.238851 -6.320239 -0.625441 -26.924843 -3.827748 -4.268475 -49.717735 -4.0103 -13.708667 -7.363575 -3.720956 18.141376 -14.052917 -3.242748 -4e-06 -18.787619 -3.8e-05 -0.429719 -8.456229 2.555535 0.0 -1e-06 -1e-06 -15.923727 -20.09474 -5.47361 30.4196 -7.190878 1.735932 -6e-06 -8.163065 -1.8e-05 -1.861925 -22.862005 -6.168146 1e-06 -6e-06 1e-06 160.409744 -7.78878 -10.720435 66.1437 0.242597 -0.113288 -67.688454 -2.511417 1.222161 -11.521487 1.608696 2.116467 -1.000003 0.0 0.0 -3.034836 4.432263 -3.755836 12.732198 0.064016 -0.136508 -77.501305 0.936861 1.466068 -7.035702 0.731418 1.640649 -1.000008 -0.0 -0.0 
0.0 0.0 0.0 0.0 -0.0 0.0 20.460293 99.751854 275.145233 88.236183 1.706237 94.247505 2.2034 2.178528 0.898723 -9.847944 -0.133055 0.968343 14.284347 -0.15547 -1.180819 15.658501 -0.098025 2.570204 -2.47893 -0.715958 -1.09508 -35.092804 -1.989641 -0.98098 6e-06 -0.0 -0.0 0.067898 -0.020828 -0.10797 0.075623 -0.035156 -0.108639 0.05852 -0.013417 -0.104277 -118.275612 -70.969498 135.300217 32.362381 -56.439064 11.899091 34.286217 0.037219 0.132414 -3.942143 1.8081 3.166055 17.636747 -26.323 52.411678 -19.466953 -14.39576 29.410782 1e-06 -8.774957 3e-06 16.183805 -18.123295 5.909026 -0.609779 -1.795674 -3.889363 -4.807148 -11.046968 -2.937889 -0.0 -20.976406 -1.3e-05 -5.020065 -25.034163 -4.031979 7e-06 1e-06 -1e-06 -10.634626 -5.687033 -3.565614 10.573403 -17.923199 -3.113963 1e-06 -13.821458 -9e-06 -0.501763 -31.182289 -4.02714 -11.602674 -59.573715 7.213921 -13.982838 -7.150276 -2.875058 13.772893 -8.401602 -3.218297 0.347732 -34.212246 0.771641 -0.963049 -17.733795 2.621064 2e-06 0.0 -1e-06 -17.34659 -20.09544 -4.201803 21.757818 -1.638387 3.866465 -2e-06 -6.338936 -5e-06 -1.697605 -22.592291 -6.194167 -1e-06 -7e-06 -2e-06 53.006203 -79.058167 143.068481 43.483337 -53.779533 3.67803 33.239498 -0.357102 0.044381 0.175589 0.466051 1.780192 22.182255 -20.376003 49.933617 -16.701973 -16.743673 28.476765 7e-06 -12.690748 2e-06 16.192249 -17.705967 2.570608 -0.105919 -1.513867 -4.275908 -5.039093 -5.612927 -2.953578 -6e-06 -11.020651 -9e-06 -6.111395 -15.895585 -3.840539 0.0 -0.0 -1e-06 -10.283446 -5.680334 -4.341856 11.028387 -11.302492 -2.372662 -1.384293 -14.23875 -6.320203 -0.625442 -26.924622 -3.8277 -4.330272 -49.680016 -3.868808 -13.708629 -7.36354 -3.720954 18.141317 -14.052845 -3.242714 -2e-06 -18.787495 -2e-05 -0.429716 -8.456172 2.555529 3e-06 -2e-06 -2e-06 -15.923676 -20.094645 -5.473606 30.419487 -7.190858 1.735944 -5e-06 -8.163014 -1.2e-05 -1.861928 -22.861824 -6.168074 -1e-06 -4e-06 0.0 157.33963 -7.384861 -10.986138 59.621357 0.318824 -0.356829 -69.53286 -1.391504 0.293852 -11.709895 1.64141 2.109436 -0.999998 0.0 -0.0 0.690025 5.017222 -2.592152 11.179231 0.044191 -0.109175 -79.64579 0.801074 1.548403 -7.048898 0.691393 1.640929 -1.000003 0.0 -0.0 
0.0 0.0 0.0 0.0 -0.0 0.0 20.664618 99.321953 279.20578 87.774582 1.688165 93.280182 2.293669 2.655771 0.862036 -9.801309 0.03512 1.397221 14.303974 -0.266997 -0.770879 15.674325 -0.702636 2.582133 -2.510798 -0.697017 -0.951528 -35.074787 -2.067815 -1.054548 6e-06 -0.0 -1e-06 0.066967 -0.012395 -0.086739 0.091969 -0.03836 -0.083674 0.061751 0.005612 -0.087222 -118.786636 -70.076996 136.006027 30.754009 -56.28896 12.907356 34.397835 0.076918 0.156252 -4.052963 2.228057 3.215912 17.63681 -26.323004 52.411572 -19.466978 -14.39577 29.410723 -7e-06 -8.774966 -1e-06 16.197628 -18.115229 5.926633 -0.609777 -1.795675 -3.889358 -4.807142 -11.04697 -2.937877 2.2e-05 -20.976425 0.0 -5.020063 -25.034157 -4.03194 6e-06 2e-06 -0.0 -10.634635 -5.687028 -3.565605 10.573434 -17.923223 -3.113958 1.7e-05 -13.821468 -4e-06 -0.501754 -31.182306 -4.027094 -11.546846 -59.639702 7.315308 -13.982847 -7.150268 -2.875049 13.772913 -8.401621 -3.218292 0.347777 -34.212265 0.77165 -0.96303 -17.733795 2.621075 3e-06 -0.0 -0.0 -17.346598 -20.095446 -4.201789 21.757841 -1.638411 3.866462 6e-06 -6.338939 -5e-06 -1.697592 -22.592293 -6.194141 -3e-06 0.0 -1e-06 52.858219 -79.901894 143.043991 45.64101 -52.128994 2.070842 35.168232 -0.282615 0.06095 0.72559 0.93085 1.383028 22.182325 -20.376135 49.933876 -16.702152 -16.743752 28.477011 -1.8e-05 -12.690818 1.3e-05 16.128511 -17.735682 2.58286 -0.105918 -1.51388 -4.275934 -5.039106 -5.612966 -2.953602 1.7e-05 -11.020756 -1.8e-05 -6.111395 -15.89576 -3.840571 -0.0 -0.0 1e-06 -10.283477 -5.680359 -4.341884 11.028462 -11.3026 -2.372694 -1.384264 -14.238886 -6.320263 -0.625378 -26.924952 -3.827744 -4.384732 -49.643978 -3.761515 -13.708671 -7.363567 -3.720977 18.141438 -14.052988 -3.242765 3.7e-05 -18.787674 -2.9e-05 -0.429705 -8.456264 2.555559 1e-06 -0.0 1e-06 -15.923705 -20.094749 -5.473645 30.419638 -7.190953 1.73591 1e-05 -8.163089 -1.4e-05 -1.861878 -22.862091 -6.16814 1e-06 -4e-06 1e-06 155.099213 -6.926288 -10.455667 50.360184 0.248946 -0.542325 -69.890633 -1.071873 -0.474973 -11.922364 1.71572 2.11294 -1.0 0.0 -0.0 3.942819 5.60672 -1.682303 9.965497 -0.005907 -0.01398 -81.673958 0.822286 1.850462 -6.928552 0.667094 1.641612 -1.000002 0.0 0.0 
